<svg width="20" height="20" fill="none" xmlns="http://www.w3.org/2000/svg"><path d="M6.38 3.008l.04-.005L6.484 3l.051.002.087.012.077.021.076.03.068.037.072.052.056.051 3.794 3.85a.705.705 0 01.028.957.686.686 0 01-.939.091l-.065-.058-2.616-2.654V16.3c0 .178-.067.35-.188.48a.685.685 0 01-1.186-.398l-.005-.082V5.39L3.177 8.045a.685.685 0 01-.91.058l-.065-.058a.705.705 0 01-.057-.924l.057-.066 3.793-3.85a.7.7 0 01.077-.068l.076-.05.079-.037.072-.025.082-.017zM13.518 3c.17 0 .332.063.459.177.126.114.206.27.226.441l.005.082v10.91l2.616-2.654.065-.059a.682.682 0 01.91.059.704.704 0 01.057.924l-.057.065-3.793 3.85-.03.03-.047.038-.076.05-.079.038-.072.024-.08.018-.063.007h-.081l-.042-.004-.078-.014-.075-.023-.056-.024-.068-.037-.066-.046a.7.7 0 01-.062-.056l-3.793-3.85-.058-.066a.707.707 0 010-.859l.058-.066.064-.058a.683.683 0 01.846 0l.065.059 2.616 2.654V3.7l.005-.082c.02-.17.1-.327.226-.441A.684.684 0 0113.517 3z" fill="#323C47"/></svg>