<svg width="62" height="62" fill="none" xmlns="http://www.w3.org/2000/svg"><g clip-path="url(#clip0_2_1304)"><path d="M31 0C13.882 0 0 13.882 0 31c0 17.118 13.881 31 31 31 17.118 0 31-13.88 31-31C62 13.882 48.119 0 31 0zm9.61 17.39c.875-.873 1.99-1.17 3.788-1.382 1.544-.18 2.81-3.608 2.81-3.608s3.081 4.346.799 7.223c-2.84 3.571-5.618 3.205-5.618 3.205l-2.405-2.405s-.502-1.904.626-3.032zm-19.932-.656l-3.943 3.943-2.362-4.73 1.574-1.575 4.73 2.362zm-5.171-2.71l-1.482 1.482L12.4 12.4l3.106 1.624zM31.373 35.31c-5.617 5.288-16.3 13.956-16.3 13.956-.44.44-1.153.446-1.593.006a1.126 1.126 0 01.006-1.593s8.668-10.682 13.957-16.293l-9.914-9.92 3.943-3.937 9.958 9.957c4.086-3.701 7.737-6.28 7.737-6.28l2.381 2.387s-2.579 3.646-6.28 7.732l9.852 9.851-3.944 3.942-9.803-9.808zm17.29 13.354c-1.022 1.023-2.454 1.29-3.546.391l-3.156-3.15 3.943-3.943 3.15 3.156c.9 1.091.633 2.524-.39 3.546z" fill="#FCC85E"/></g><defs><clipPath id="clip0_2_1304"><path fill="#fff" d="M0 0h62.001v62.001H0z"/></clipPath></defs></svg>