<svg width="24" height="24" fill="none" xmlns="http://www.w3.org/2000/svg"><path d="M5.571 3.429A2.143 2.143 0 003.43 5.57V7A.714.714 0 112 7V5.571A3.571 3.571 0 015.571 2H7a.714.714 0 010 1.429H5.571zM7 4.857A2.143 2.143 0 004.857 7v10A2.143 2.143 0 007 19.143h10A2.143 2.143 0 0019.143 17V7A2.143 2.143 0 0017 4.857H7zM18.429 3.43a2.143 2.143 0 012.141 2.14V7A.715.715 0 0022 7V5.571A3.572 3.572 0 0018.429 2H17a.715.715 0 000 1.429h1.429zm0 17.142a2.143 2.143 0 002.142-2.142V17A.715.715 0 0122 17v1.429A3.572 3.572 0 0118.429 22H17a.715.715 0 010-1.429h1.429zm-12.858 0A2.143 2.143 0 013.43 18.43v-1.786a.714.714 0 10-1.429 0v1.786A3.571 3.571 0 005.571 22h1.786a.715.715 0 000-1.429H5.571z" fill="#C2CFE0"/></svg>