<svg width="112" height="22" fill="none" xmlns="http://www.w3.org/2000/svg"><path d="M.2 21.333L9.556.653h3.168l9.474 20.68h-3.842l-2.523-5.808 1.525 1.027H4.951l1.584-1.027-2.522 5.808H.199zM11.11 4.701l-4.136 9.797-.762-.909h9.856l-.616.91L11.229 4.7h-.118zm13.376 16.632V.653h7.51c2.366 0 4.36.41 5.984 1.232 1.642.802 2.884 1.975 3.725 3.52.84 1.525 1.261 3.383 1.261 5.573 0 2.171-.42 4.029-1.261 5.574S39.623 19.28 37.98 20.1c-1.624.821-3.618 1.232-5.984 1.232h-7.51zm3.784-3.139h3.49c2.504 0 4.362-.596 5.574-1.789 1.213-1.193 1.819-3.002 1.819-5.427 0-2.444-.606-4.253-1.819-5.426-1.212-1.193-3.07-1.79-5.573-1.79h-3.49v14.432zm18.59 3.139V.653h3.314l7.597 17.101h-.909L64.46.653h3.286v20.68h-3.432V5.992h1.056l-6.952 15.341h-2.259L49.207 5.992h1.085v15.341H46.86zm23.205 0L79.424.653h3.168l9.474 20.68h-3.842L85.7 15.525l1.525 1.027H74.818l1.584-1.027-2.522 5.808h-3.814zM80.978 4.701l-4.136 9.797-.762-.909h9.856l-.616.91L81.096 4.7h-.118zm13.376 16.632V.653h9.035c2.269 0 4.019.538 5.251 1.613 1.251 1.076 1.877 2.572 1.877 4.488 0 1.271-.283 2.357-.851 3.256-.547.9-1.339 1.594-2.376 2.083-1.036.47-2.258.704-3.666.704l.41-.557h.998c.821 0 1.554.215 2.2.645.645.43 1.173 1.085 1.584 1.965l3.021 6.483h-4.165l-3.051-6.717c-.274-.685-.694-1.134-1.261-1.35-.548-.215-1.213-.322-1.995-.322h-3.227v8.389h-3.784zm3.784-11.176h4.635c1.33 0 2.337-.274 3.021-.821.704-.567 1.056-1.389 1.056-2.464 0-1.076-.352-1.887-1.056-2.435-.684-.548-1.691-.821-3.021-.821h-4.635v6.541z" fill="#009EF7"/></svg>