<svg width="28" height="28" fill="none" xmlns="http://www.w3.org/2000/svg"><path d="M14.5 11.5c-1.26 0-2.468-.448-3.359-1.245-.89-.797-1.391-1.878-1.391-3.005s.5-2.208 1.391-3.005C12.032 3.448 13.241 3 14.5 3c1.26 0 2.468.448 3.359 1.245.89.797 1.391 1.878 1.391 3.005s-.5 2.208-1.391 3.005c-.891.797-2.1 1.245-3.359 1.245zM6.7 24.25a1.7 1.7 0 01-1.7-1.7v0c0-1.803.667-3.533 1.855-4.808 1.188-1.276 2.799-1.992 4.478-1.992h6.334c1.68 0 3.29.716 4.478 1.992C23.333 19.017 24 20.747 24 22.55v0" stroke="#0088D4" stroke-width="2" stroke-linecap="round"/></svg>