<svg width="21" height="24" fill="none" xmlns="http://www.w3.org/2000/svg"><path d="M10.5 9.5c-1.26 0-2.468-.448-3.359-1.245-.89-.797-1.391-1.878-1.391-3.005s.5-2.208 1.391-3.005C8.032 1.448 9.241 1 10.5 1c1.26 0 2.468.448 3.359 1.245.89.797 1.391 1.878 1.391 3.005s-.5 2.208-1.391 3.005c-.891.797-2.1 1.245-3.359 1.245zM2.7 22.25a1.7 1.7 0 01-1.7-1.7v0c0-1.803.667-3.533 1.855-4.808 1.188-1.276 2.799-1.992 4.478-1.992h6.334c1.68 0 3.29.716 4.478 1.992C19.333 17.017 20 18.747 20 20.55v0" stroke="#009EF7" stroke-width="2" stroke-linecap="round"/></svg>