<svg width="62" height="62" fill="none" xmlns="http://www.w3.org/2000/svg"><circle cx="31" cy="31" r="31" fill="#FCC85E"/><path d="M30.979 25.99a6.362 6.362 0 00-6.364 6.363 6.362 6.362 0 006.364 6.363 6.362 6.362 0 006.363-6.364 6.362 6.362 0 00-6.363-6.363z" fill="#fff"/><path d="M45.885 19.225H29.732L27.73 17h-7.343l-2.002 2.225H16.07a3.077 3.077 0 00-3.07 3.07v19.536c0 1.69 1.38 3.07 3.07 3.07h29.86c1.69 0 3.07-1.38 3.07-3.07V22.295c-.045-1.69-1.38-3.07-3.115-3.07zm-25.854 8.099a1.642 1.642 0 01-1.646-1.647c0-.934.756-1.646 1.646-1.646.89 0 1.646.757 1.646 1.646 0 .935-.756 1.647-1.646 1.647zM30.978 40.05c-4.272 0-7.698-3.471-7.698-7.699 0-4.227 3.426-7.698 7.698-7.698a7.672 7.672 0 017.698 7.698 7.672 7.672 0 01-7.698 7.699z" fill="#fff"/></svg>