<svg width="62" height="62" fill="none" xmlns="http://www.w3.org/2000/svg"><circle cx="31" cy="31" r="31" fill="#FCC85E"/><path d="M43.075 22.988v3.631c0 .085.211.254.338.254h3.463c.21 0 .506-.127.506-.254v-3.63c0-.085-.296-.254-.506-.254h-3.463c-.127.042-.338.169-.338.253zm0 6.63v3.377c0 .253.17.464.338.464h3.463c.253 0 .506-.21.506-.464v-3.378c0-.211-.296-.464-.506-.464h-3.463c-.127 0-.338.295-.338.464zm0 6.46v3.462c0 .21.17.337.338.337h3.463c.253 0 .506-.168.506-.337v-3.463c0-.21-.253-.337-.506-.337h-3.463a.363.363 0 00-.338.337zm-16.213-9.754v10.978c0 .506.465.887.887.506l8.275-5.446c.212-.127.338-.296.338-.55 0-.252-.126-.379-.338-.464l-8.276-5.53c-.338-.127-.886.041-.886.506zM14.618 22.99v3.63c0 .085.253.254.422.254h3.505c.126 0 .337-.127.337-.253V22.99c0-.085-.21-.254-.338-.254H15.04c-.169.043-.422.17-.422.254zm0 6.628v3.378c0 .254.253.465.422.465h3.505c.168 0 .337-.212.337-.465v-3.378c0-.21-.21-.464-.338-.464H15.04c-.169 0-.422.296-.422.464zm0 6.46v3.463c0 .211.253.338.422.338h3.505a.363.363 0 00.337-.338v-3.462a.333.333 0 00-.338-.338H15.04c-.169 0-.422.169-.422.338zM12 40.638V22.06c0-1.562 1.267-2.745 2.787-2.745h32.426c1.52 0 2.787 1.183 2.787 2.745v18.535c0 1.52-1.267 2.702-2.787 2.702H14.787c-1.52.043-2.787-1.182-2.787-2.66z" fill="#fff"/></svg>